<svg width="14" height="11" viewBox="0 0 14 11" fill="none" xmlns="http://www.w3.org/2000/svg">
<path d="M11.8458 0.914167C10.9591 0.488029 9.99905 0.178735 8.99902 3.16155e-05C8.99025 -0.000257474 8.98153 0.00143889 8.97347 0.00500146C8.96541 0.00856403 8.9582 0.0139063 8.95235 0.0206514C8.83235 0.247467 8.69235 0.543014 8.59901 0.76983C7.53832 0.604873 6.45962 0.604873 5.39892 0.76983C5.30559 0.536141 5.16558 0.247467 5.03891 0.0206514C5.03225 0.00690496 5.01225 3.16155e-05 4.99225 3.16155e-05C3.99222 0.178735 3.03886 0.488029 2.1455 0.914167C2.13883 0.914167 2.13217 0.92104 2.1255 0.927914C0.312118 3.72531 -0.187896 6.44709 0.0587777 9.14139C0.0587777 9.15513 0.0654445 9.16888 0.0787782 9.17575C1.27881 10.083 2.43218 10.6329 3.57221 10.9972C3.59221 11.004 3.61221 10.9972 3.61888 10.9834C3.88555 10.6054 4.12556 10.2067 4.33223 9.78747C4.34556 9.75998 4.33223 9.73248 4.30556 9.72561C3.92555 9.5744 3.56554 9.3957 3.2122 9.1895C3.18553 9.17575 3.18553 9.13452 3.20553 9.1139C3.27887 9.05891 3.3522 8.99705 3.42554 8.94207C3.43887 8.92832 3.45887 8.92832 3.4722 8.93519C5.7656 10.0143 8.239 10.0143 10.5057 8.93519C10.5191 8.92832 10.5391 8.92832 10.5524 8.94207C10.6257 9.00392 10.6991 9.05891 10.7724 9.12077C10.7991 9.14139 10.7991 9.18263 10.7657 9.19637C10.4191 9.40944 10.0524 9.58127 9.67237 9.73248C9.64571 9.73936 9.63904 9.77372 9.64571 9.79434C9.85905 10.2136 10.0991 10.6123 10.3591 10.9903C10.3791 10.9972 10.3991 11.004 10.4191 10.9972C11.5658 10.6329 12.7191 10.083 13.9192 9.17575C13.9325 9.16888 13.9392 9.15513 13.9392 9.14139C14.2325 6.02783 13.4525 3.32666 11.8724 0.927914C11.8658 0.92104 11.8591 0.914167 11.8458 0.914167ZM4.6789 7.49869C3.99222 7.49869 3.41887 6.84574 3.41887 6.04157C3.41887 5.23741 3.97889 4.58446 4.6789 4.58446C5.38559 4.58446 5.94561 5.24428 5.93894 6.04157C5.93894 6.84574 5.37892 7.49869 4.6789 7.49869ZM9.3257 7.49869C8.63901 7.49869 8.06566 6.84574 8.06566 6.04157C8.06566 5.23741 8.62568 4.58446 9.3257 4.58446C10.0324 4.58446 10.5924 5.24428 10.5857 6.04157C10.5857 6.84574 10.0324 7.49869 9.3257 7.49869Z" fill="black"/>
</svg>
