<svg width="13" height="12" viewBox="0 0 13 12" fill="none" xmlns="http://www.w3.org/2000/svg">
<path d="M11.7298 8.65007V10.2686C11.7304 10.4188 11.6996 10.5676 11.6394 10.7052C11.5792 10.8429 11.4909 10.9665 11.3802 11.0681C11.2695 11.1696 11.1388 11.247 10.9964 11.2951C10.8541 11.3432 10.7033 11.3611 10.5536 11.3476C8.89348 11.1672 7.29879 10.5999 5.8977 9.69131C4.59416 8.86299 3.48898 7.75782 2.66066 6.45428C1.74889 5.04682 1.18147 3.44437 1.00438 1.77676C0.990897 1.62757 1.00863 1.47721 1.05644 1.33524C1.10426 1.19328 1.18111 1.06283 1.2821 0.952192C1.38309 0.841556 1.50601 0.753162 1.64304 0.692636C1.78007 0.63211 1.9282 0.600779 2.078 0.600638H3.69651C3.95834 0.598061 4.21217 0.690778 4.41069 0.861507C4.60921 1.03224 4.73888 1.26933 4.77552 1.52859C4.84384 2.04655 4.97053 2.55512 5.15318 3.0446C5.22577 3.2377 5.24148 3.44756 5.19845 3.64932C5.15542 3.85108 5.05545 4.03627 4.9104 4.18296L4.22523 4.86813C4.99325 6.21881 6.11159 7.33715 7.46226 8.10516L8.14744 7.41999C8.29412 7.27494 8.47932 7.17498 8.68107 7.13195C8.88283 7.08892 9.09269 7.10463 9.28579 7.17721C9.77527 7.35986 10.2838 7.48656 10.8018 7.55487C11.0639 7.59184 11.3032 7.72385 11.4743 7.92578C11.6454 8.12771 11.7363 8.38548 11.7298 8.65007Z" stroke="#1A1A1A" stroke-width="1.2" stroke-linecap="round" stroke-linejoin="round"/>
</svg>
