<svg width="13" height="24" viewBox="0 0 13 24" fill="none" xmlns="http://www.w3.org/2000/svg">
<g clip-path="url(#clip0_2523_5553)">
<path d="M12.5 7.16667L6.25 3.58333L0 7.16667V3.58333L6.25 0L12.5 3.58333V7.16667Z" fill="black"/>
<path d="M0 10.1667H3.29167V18.0417C3.29167 20.0833 4.83333 21.0833 6.25 21.0833C7.70833 21.0833 9.20833 20.0833 9.20833 18.0417V10.1667H12.5V18.25C12.5 20.125 11.9167 21.5833 10.7083 22.5833C9.5 23.5833 8.04167 24.0417 6.20833 24.0417C4.375 24.0417 2.91667 23.5417 1.75 22.5833C0.583333 21.5417 0 20.1667 0 18.2917V10.1667Z" fill="black"/>
</g>
<defs>
<clipPath id="clip0_2523_5553">
<rect width="12.5" height="24" fill="white"/>
</clipPath>
</defs>
</svg>
